{"title":"Crouching.Tiger.Hidden.Dragon.Sword.of.Destiny.720p-PRiSTiNE","uid":14295662,"size":694488106,"categoryP":"video","categoryS":"movies","magnet":"?xt=urn:btih:cd47fcb8506d44da1b347884810ecb3d97f15b86&amp;dn=Crouching.Tiger.Hidden.Dragon.Sword.of.Destiny.720p-PRiSTiNE&amp;tr=udp%3A%2F%2Ftracker.leechers-paradise.org%3A6969&amp;tr=udp%3A%2F%2Fzer0day.ch%3A1337&amp;tr=udp%3A%2F%2Fopen.demonii.com%3A1337&amp;tr=udp%3A%2F%2Ftracker.coppersurfer.tk%3A6969&amp;tr=udp%3A%2F%2Fexodus.desync.com%3A6969","seeders":13,"leechers":4,"uploader":"VYTOP2PDL","files":7,"time":1460446642,"description":"____    ____ ____    ____ .___________.  ______   \r\n     /   /      /   / |           | /  __    \r\n    /   /      /   /  `---|  |----`|  |  |  | \r\n        /     _    _/       |  |     |  |  |  | \r\n       /        |  |         |  |     |  `--'  | \r\n    __/         |__|         |__|      ______/  \r\n                                                  \r\nPresenting Small Encodes with quality for years!\r\n                                                                                                   \r\n                                                                                                   \r\n\r\n\r\nCrouching.Tiger.Hidden.Dragon.Sword.of.Destiny.2016.BRRip.720p.x264-PRiSTiNE\r\n\r\n\r\nGenre: Action, Adventure, Drama  \nhttp://www.imdb.com/title/tt2652118/\r\n\r\n\r\nFormat                                   : MPEG-4\r\nFile size                                : 650 MiB\r\nDuration                                 : 1h 42mn\r\nOverall bit rate                         : 887 Kbps\r\n\r\nVideo\r\nFormat                                   : AVC\r\nBit rate                                 : 805 Kbps\r\nWidth                                    : 1 280 pixels\r\nHeight                                   : 536 pixels\r\nDisplay aspect ratio                     : 2.40:1\r\nFrame rate mode                          : Constant\r\nFrame rate                               : 23.976 (24000/1001) fps\r\nBit depth                                : 8 bits\r\nStream size                              : 590 MiB (91%)\r\nWriting library                          : x264\r\n\r\nAudio\r\nFormat                                   : AAC\r\nBit rate mode                            : Variable\r\nBit rate                                 : 79.9 Kbps\r\nChannel(s)                               : 2 channels\r\nChannel positions                        : Front: L R\r\nSampling rate                            : 48.0 KHz\r\nStream size                              : 58.6 MiB (9%)\r\nLanguage                                 : Chinese (Cantonese)\r\n\r\nSubtitle                                 : Yes (English)\r\n\r\nScreen Shots: (Click link to view)\r\n \nhttps://ititli.com/XYt \nhttps://ititli.com/XYL \nhttps://ititli.com/XYd \nhttps://ititli.com/XY0 \nhttps://ititli.com/XYA \nhttps://ititli.com/XYl \nhttps://ititli.com/XYm \nhttps://ititli.com/XYx \nhttps://ititli.com/XY7\r\n\r\n----------------------------------------------------------------------------------------------------\r\n\r\n\r\nEncoder Notes: Looking For Early Access To Anything You Can Provide WEBDL, DVDScr, DVDR, BluRay,\r\nDirect Audio, Music Releases and Seedboxes. If You Got anything to offer please contact us.\r\n\r\nSupport us by donating BC - 1FgwdzPsd1y25Gea8wP1qni35uGCtmkRCD\r\n\r\nFind us and join us!","torrent":{"xt":"urn:btih:cd47fcb8506d44da1b347884810ecb3d97f15b86","amp;dn":"Crouching.Tiger.Hidden.Dragon.Sword.of.Destiny.720p-PRiSTiNE","amp;tr":["udp%3A%2F%2Ftracker.leechers-paradise.org%3A6969","udp%3A%2F%2Fzer0day.ch%3A1337","udp%3A%2F%2Fopen.demonii.com%3A1337","udp%3A%2F%2Ftracker.coppersurfer.tk%3A6969","udp%3A%2F%2Fexodus.desync.com%3A6969"],"infoHash":"cd47fcb8506d44da1b347884810ecb3d97f15b86","infoHashBuffer":{"type":"Buffer","data":[205,71,252,184,80,109,68,218,27,52,120,132,129,14,203,61,151,241,91,134]},"announce":[],"urlList":[]}}